<svg width="11" height="14" viewBox="0 0 11 14" fill="none" xmlns="http://www.w3.org/2000/svg">
<g clip-path="url(#clip0_0_165)">
<path d="M6.87496 13.2709H4.12496C1.63621 13.2709 0.572876 11.9175 0.572876 8.75002V5.25002C0.572876 2.08252 1.63621 0.729187 4.12496 0.729187H6.87496C9.36371 0.729187 10.427 2.08252 10.427 5.25002V8.75002C10.427 11.9175 9.36371 13.2709 6.87496 13.2709ZM4.12496 1.60419C2.01204 1.60419 1.26038 2.56085 1.26038 5.25002V8.75002C1.26038 11.4392 2.01204 12.3959 4.12496 12.3959H6.87496C8.98788 12.3959 9.73954 11.4392 9.73954 8.75002V5.25002C9.73954 2.56085 8.98788 1.60419 6.87496 1.60419H4.12496Z" fill="#2E4093"/>
<path d="M5.50028 7.62981C5.44069 7.62981 5.38111 7.6123 5.32611 7.57147L2.89695 5.78647C2.73195 5.66397 2.67694 5.39564 2.77319 5.19147C2.86944 4.98147 3.08028 4.91147 3.2407 5.03397L5.49569 6.69647L7.73694 5.04564C7.90194 4.92314 8.11278 4.99897 8.20444 5.20314C8.29611 5.4073 8.24111 5.68147 8.08069 5.79814L5.66986 7.57147C5.61944 7.60647 5.55986 7.62981 5.50028 7.62981Z" fill="#2E4093"/>
<path d="M5.5 10.8034C5.31208 10.8034 5.15625 10.6051 5.15625 10.3659V7.19257C5.15625 6.9534 5.31208 6.75507 5.5 6.75507C5.68792 6.75507 5.84375 6.9534 5.84375 7.19257V10.3659C5.84375 10.6051 5.68792 10.8034 5.5 10.8034Z" fill="#2E4093"/>
<path d="M5.50009 10.9374C5.23426 10.9374 4.97306 10.8616 4.76222 10.7157L3.29553 9.67741C2.85553 9.36824 2.51636 8.62741 2.51636 7.98574V6.00824C2.51636 5.37241 2.86012 4.63157 3.29553 4.31657L4.76222 3.27824C5.18389 2.98074 5.81634 2.98074 6.23801 3.27824L7.70468 4.31657C8.14468 4.62574 8.48389 5.36658 8.48389 6.00824V7.98574C8.48389 8.62157 8.14009 9.36241 7.70468 9.67741L6.23801 10.7157C6.02718 10.8674 5.76593 10.9374 5.50009 10.9374ZM5.50009 3.93741C5.34884 3.93741 5.20218 3.97241 5.09676 4.04824L3.63012 5.08657C3.40554 5.24407 3.20386 5.68741 3.20386 6.00824V7.98574C3.20386 8.31241 3.40554 8.74991 3.63012 8.90741L5.09676 9.94574C5.30759 10.0974 5.69259 10.0974 5.90343 9.94574L7.37009 8.90741C7.59468 8.74991 7.79639 8.30657 7.79639 7.98574V6.00824C7.79639 5.68158 7.59468 5.24407 7.37009 5.08657L5.90343 4.04824C5.79801 3.97241 5.65134 3.93741 5.50009 3.93741Z" fill="#2E4093"/>
</g>
<rect x="0.5" y="0.5" width="10" height="13" stroke="black"/>
<defs>
<clipPath id="clip0_0_165">
<rect width="11" height="14" fill="white"/>
</clipPath>
</defs>
</svg>
