<svg width="32" height="32" viewBox="0 0 32 32" fill="none" xmlns="http://www.w3.org/2000/svg">
<g filter="url(#filter0_d_0_42)">
<circle cx="16" cy="12" r="12" fill="url(#paint0_linear_0_42)"/>
<g clip-path="url(#clip0_0_42)">
<path d="M18.1133 9.86731C17.9117 9.86731 17.7445 9.68411 17.7445 9.4632V8.71962C17.7445 8.15386 17.5232 7.60426 17.1397 7.2217C16.7512 6.83375 16.2497 6.65594 15.7186 6.70982C14.8336 6.80142 14.0567 7.79285 14.0567 8.82739V9.35004C14.0567 9.57096 13.8895 9.75416 13.6879 9.75416C13.4863 9.75416 13.3191 9.57096 13.3191 9.35004V8.822C13.3191 7.37257 14.3861 6.0363 15.6498 5.90159C16.3874 5.82616 17.0954 6.0794 17.6363 6.62361C18.1723 7.15704 18.482 7.92217 18.482 8.71962V9.4632C18.482 9.68411 18.3149 9.86731 18.1133 9.86731Z" fill="#1A1717"/>
<path d="M17.3755 17.4756H14.4252C12.1535 17.4756 11.7307 16.3171 11.6225 15.191L11.2537 11.9634C11.1996 11.3815 11.18 10.5463 11.6962 9.92129C12.1388 9.38247 12.8714 9.12384 13.9335 9.12384H17.8672C18.9342 9.12384 19.6668 9.38786 20.1045 9.92129C20.6158 10.5463 20.6011 11.3815 20.547 11.9526L20.1782 15.191C20.07 16.3171 19.6472 17.4756 17.3755 17.4756ZM13.9335 9.93207C13.1025 9.93207 12.5322 10.1099 12.242 10.4655C12.0011 10.7565 11.9224 11.2037 11.9864 11.8718L12.3551 15.0994C12.4387 15.9615 12.6551 16.6727 14.4252 16.6727H17.3755C19.1456 16.6727 19.362 15.9669 19.4456 15.1101L19.8144 11.8718C19.8783 11.2145 19.7996 10.7672 19.5587 10.4709C19.2686 10.1099 18.6982 9.93207 17.8672 9.93207H13.9335Z" fill="#1A1717"/>
<path d="M17.5822 12.3029C17.3068 12.3029 17.0856 12.0604 17.0856 11.764C17.0856 11.4677 17.3068 11.2252 17.5773 11.2252C17.8477 11.2252 18.069 11.4677 18.069 11.764C18.069 12.0604 17.8526 12.3029 17.5822 12.3029Z" fill="#1A1717"/>
<path d="M14.1403 12.3029C13.8649 12.3029 13.6437 12.0604 13.6437 11.764C13.6437 11.4677 13.8649 11.2252 14.1354 11.2252C14.4058 11.2252 14.6271 11.4677 14.6271 11.764C14.6271 12.0604 14.4107 12.3029 14.1403 12.3029Z" fill="#1A1717"/>
</g>
</g>
<defs>
<filter id="filter0_d_0_42" x="0" y="0" width="32" height="32" filterUnits="userSpaceOnUse" color-interpolation-filters="sRGB">
<feFlood flood-opacity="0" result="BackgroundImageFix"/>
<feColorMatrix in="SourceAlpha" type="matrix" values="0 0 0 0 0 0 0 0 0 0 0 0 0 0 0 0 0 0 127 0" result="hardAlpha"/>
<feOffset dy="4"/>
<feGaussianBlur stdDeviation="2"/>
<feComposite in2="hardAlpha" operator="out"/>
<feColorMatrix type="matrix" values="0 0 0 0 0 0 0 0 0 0 0 0 0 0 0 0 0 0 0.25 0"/>
<feBlend mode="normal" in2="BackgroundImageFix" result="effect1_dropShadow_0_42"/>
<feBlend mode="normal" in="SourceGraphic" in2="effect1_dropShadow_0_42" result="shape"/>
</filter>
<linearGradient id="paint0_linear_0_42" x1="25.3" y1="6.11991e-07" x2="16" y2="24" gradientUnits="userSpaceOnUse">
<stop stop-color="#FFA3CF"/>
<stop offset="1" stop-color="#FFD5F3"/>
</linearGradient>
<clipPath id="clip0_0_42">
<rect width="11.801" height="12.9317" fill="white" transform="translate(10 5.21741)"/>
</clipPath>
</defs>
</svg>
