<svg width="32" height="32" viewBox="0 0 32 32" fill="none" xmlns="http://www.w3.org/2000/svg">
<g filter="url(#filter0_d_0_10)">
<circle cx="16" cy="12" r="12" fill="url(#paint0_linear_0_10)"/>
<g clip-path="url(#clip0_0_10)">
<path d="M16.525 14.1251H15.585C14.92 14.1251 14.375 13.5651 14.375 12.8751C14.375 12.6701 14.545 12.5001 14.75 12.5001C14.955 12.5001 15.125 12.6701 15.125 12.8751C15.125 13.1501 15.33 13.3751 15.585 13.3751H16.525C16.72 13.3751 16.875 13.2001 16.875 12.9851C16.875 12.7151 16.8 12.6751 16.63 12.6151L15.125 12.0901C14.805 11.9801 14.375 11.7451 14.375 11.0101C14.375 10.3851 14.87 9.87012 15.475 9.87012H16.415C17.08 9.87012 17.625 10.4301 17.625 11.1201C17.625 11.3251 17.455 11.4951 17.25 11.4951C17.045 11.4951 16.875 11.3251 16.875 11.1201C16.875 10.8451 16.67 10.6201 16.415 10.6201H15.475C15.28 10.6201 15.125 10.7951 15.125 11.0101C15.125 11.2801 15.2 11.3201 15.37 11.3801L16.875 11.9051C17.195 12.0151 17.625 12.2501 17.625 12.9851C17.625 13.6151 17.13 14.1251 16.525 14.1251Z" fill="#AC0015" fill-opacity="0.46"/>
<path d="M16 14.625C15.795 14.625 15.625 14.455 15.625 14.25V9.75C15.625 9.545 15.795 9.375 16 9.375C16.205 9.375 16.375 9.545 16.375 9.75V14.25C16.375 14.455 16.205 14.625 16 14.625Z" fill="#AC0015" fill-opacity="0.46"/>
<path d="M16 17.375C13.035 17.375 10.625 14.965 10.625 12C10.625 9.035 13.035 6.625 16 6.625C16.205 6.625 16.375 6.795 16.375 7C16.375 7.205 16.205 7.375 16 7.375C13.45 7.375 11.375 9.45 11.375 12C11.375 14.55 13.45 16.625 16 16.625C18.55 16.625 20.625 14.55 20.625 12C20.625 11.795 20.795 11.625 21 11.625C21.205 11.625 21.375 11.795 21.375 12C21.375 14.965 18.965 17.375 16 17.375Z" fill="#AC0015" fill-opacity="0.46"/>
<path d="M20.5 9.875H18.5C18.295 9.875 18.125 9.705 18.125 9.5V7.5C18.125 7.295 18.295 7.125 18.5 7.125C18.705 7.125 18.875 7.295 18.875 7.5V9.125H20.5C20.705 9.125 20.875 9.295 20.875 9.5C20.875 9.705 20.705 9.875 20.5 9.875Z" fill="#AC0015" fill-opacity="0.46"/>
<path d="M18.4997 9.87521C18.4047 9.87521 18.3097 9.84021 18.2347 9.76521C18.0897 9.62021 18.0897 9.38021 18.2347 9.23521L20.7347 6.73521C20.8797 6.59021 21.1197 6.59021 21.2647 6.73521C21.4097 6.88021 21.4097 7.12021 21.2647 7.26521L18.7647 9.76521C18.6897 9.84021 18.5947 9.87521 18.4997 9.87521Z" fill="#AC0015" fill-opacity="0.46"/>
</g>
</g>
<defs>
<filter id="filter0_d_0_10" x="0" y="0" width="32" height="32" filterUnits="userSpaceOnUse" color-interpolation-filters="sRGB">
<feFlood flood-opacity="0" result="BackgroundImageFix"/>
<feColorMatrix in="SourceAlpha" type="matrix" values="0 0 0 0 0 0 0 0 0 0 0 0 0 0 0 0 0 0 127 0" result="hardAlpha"/>
<feOffset dy="4"/>
<feGaussianBlur stdDeviation="2"/>
<feComposite in2="hardAlpha" operator="out"/>
<feColorMatrix type="matrix" values="0 0 0 0 0 0 0 0 0 0 0 0 0 0 0 0 0 0 0.25 0"/>
<feBlend mode="normal" in2="BackgroundImageFix" result="effect1_dropShadow_0_10"/>
<feBlend mode="normal" in="SourceGraphic" in2="effect1_dropShadow_0_10" result="shape"/>
</filter>
<linearGradient id="paint0_linear_0_10" x1="25.3" y1="6.11991e-07" x2="16" y2="24" gradientUnits="userSpaceOnUse">
<stop stop-color="#D3FFE7"/>
<stop offset="1" stop-color="#EFFFF6"/>
</linearGradient>
<clipPath id="clip0_0_10">
<rect width="12" height="12" fill="white" transform="translate(10 6)"/>
</clipPath>
</defs>
</svg>
