<svg width="32" height="32" viewBox="0 0 32 32" fill="none" xmlns="http://www.w3.org/2000/svg">
<g filter="url(#filter0_d_0_26)">
<circle cx="16" cy="12" r="12" fill="url(#paint0_linear_0_26)"/>
<path d="M13.5849 18.3748C12.3949 18.3748 11.4199 17.5098 11.4199 16.4448V15.4248C11.4199 15.2198 11.5899 15.0498 11.7949 15.0498C11.9999 15.0498 12.1699 15.2198 12.1699 15.4248C12.1699 16.0498 12.7749 16.5198 13.5849 16.5198C14.3949 16.5198 14.9999 16.0498 14.9999 15.4248C14.9999 15.2198 15.1699 15.0498 15.3749 15.0498C15.5799 15.0498 15.7499 15.2198 15.7499 15.4248V16.4448C15.7499 17.5098 14.7799 18.3748 13.5849 18.3748ZM12.2999 16.9348C12.5199 17.3448 13.0149 17.6248 13.5849 17.6248C14.1549 17.6248 14.6499 17.3398 14.8699 16.9348C14.5149 17.1498 14.0749 17.2748 13.5849 17.2748C13.0949 17.2748 12.6549 17.1498 12.2999 16.9348Z" fill="#3E0FC2" fill-opacity="0.54"/>
<path d="M13.5849 15.8997C12.7649 15.8997 12.0299 15.5247 11.6649 14.9297C11.5049 14.6697 11.4199 14.3647 11.4199 14.0547C11.4199 13.5297 11.6499 13.0397 12.0699 12.6747C12.8799 11.9647 14.2749 11.9647 15.0899 12.6698C15.5099 13.0398 15.7449 13.5297 15.7449 14.0547C15.7449 14.3647 15.6599 14.6697 15.4999 14.9297C15.1399 15.5247 14.4049 15.8997 13.5849 15.8997ZM13.5849 12.8748C13.1949 12.8748 12.8349 13.0047 12.5649 13.2397C12.3099 13.4597 12.1699 13.7497 12.1699 14.0547C12.1699 14.2297 12.2149 14.3898 12.3049 14.5398C12.5349 14.9198 13.0249 15.1548 13.5849 15.1548C14.1449 15.1548 14.6349 14.9198 14.8599 14.5448C14.9499 14.3998 14.9949 14.2348 14.9949 14.0598C14.9949 13.7548 14.8549 13.4647 14.5999 13.2397C14.3349 13.0047 13.9749 12.8748 13.5849 12.8748Z" fill="#3E0FC2" fill-opacity="0.54"/>
<path d="M13.5849 17.275C12.3499 17.275 11.4199 16.48 11.4199 15.43V14.055C11.4199 12.99 12.3899 12.125 13.5849 12.125C14.1499 12.125 14.6899 12.32 15.0949 12.67C15.5149 13.04 15.7499 13.53 15.7499 14.055V15.43C15.7499 16.48 14.8199 17.275 13.5849 17.275ZM13.5849 12.875C12.8049 12.875 12.1699 13.405 12.1699 14.055V15.43C12.1699 16.055 12.7749 16.525 13.5849 16.525C14.3949 16.525 14.9999 16.055 14.9999 15.43V14.055C14.9999 13.75 14.8599 13.46 14.6049 13.235C14.3349 13.005 13.9749 12.875 13.5849 12.875Z" fill="#3E0FC2" fill-opacity="0.54"/>
<path d="M19.52 14.4001C18.765 14.4001 18.125 13.8401 18.065 13.1201C18.025 12.7051 18.175 12.3001 18.475 12.0051C18.725 11.7451 19.08 11.6001 19.455 11.6001H20.5C20.995 11.6151 21.375 12.0051 21.375 12.4851V13.5151C21.375 13.9951 20.995 14.3851 20.515 14.4001H19.52ZM20.485 12.3501H19.46C19.285 12.3501 19.125 12.4151 19.01 12.5351C18.865 12.6751 18.795 12.8651 18.815 13.0551C18.84 13.3851 19.16 13.6501 19.52 13.6501H20.5C20.565 13.6501 20.625 13.5901 20.625 13.5151V12.4851C20.625 12.4101 20.565 12.3551 20.485 12.3501Z" fill="#3E0FC2" fill-opacity="0.54"/>
<path d="M18.0001 17.625H16.7501C16.5451 17.625 16.3751 17.455 16.3751 17.25C16.3751 17.045 16.5451 16.875 16.7501 16.875H18.0001C19.2901 16.875 20.1251 16.04 20.1251 14.75V14.4H19.5201C18.7651 14.4 18.1251 13.84 18.0651 13.12C18.0251 12.705 18.1752 12.3 18.4752 12.005C18.7252 11.745 19.0801 11.6 19.4551 11.6H20.1201V11.25C20.1201 10.08 19.4352 9.27499 18.3252 9.14499C18.2052 9.12499 18.1001 9.125 17.9951 9.125H13.4951C13.3751 9.125 13.2601 9.135 13.1451 9.15C12.0451 9.29 11.3701 10.09 11.3701 11.25V12.25C11.3701 12.455 11.2001 12.625 10.9951 12.625C10.7901 12.625 10.6201 12.455 10.6201 12.25V11.25C10.6201 9.71 11.5701 8.59501 13.0451 8.41C13.1801 8.39 13.3351 8.375 13.4951 8.375H17.9951C18.1151 8.375 18.2701 8.38 18.4301 8.405C19.9051 8.575 20.8701 9.695 20.8701 11.25V11.975C20.8701 12.18 20.7001 12.35 20.4951 12.35H19.4551C19.2801 12.35 19.1202 12.415 19.0052 12.535C18.8602 12.675 18.7901 12.865 18.8101 13.055C18.8351 13.385 19.1552 13.65 19.5152 13.65H20.5001C20.7051 13.65 20.8751 13.82 20.8751 14.025V14.75C20.8751 16.47 19.7201 17.625 18.0001 17.625Z" fill="#3E0FC2" fill-opacity="0.54"/>
</g>
<defs>
<filter id="filter0_d_0_26" x="0" y="0" width="32" height="32" filterUnits="userSpaceOnUse" color-interpolation-filters="sRGB">
<feFlood flood-opacity="0" result="BackgroundImageFix"/>
<feColorMatrix in="SourceAlpha" type="matrix" values="0 0 0 0 0 0 0 0 0 0 0 0 0 0 0 0 0 0 127 0" result="hardAlpha"/>
<feOffset dy="4"/>
<feGaussianBlur stdDeviation="2"/>
<feComposite in2="hardAlpha" operator="out"/>
<feColorMatrix type="matrix" values="0 0 0 0 0 0 0 0 0 0 0 0 0 0 0 0 0 0 0.25 0"/>
<feBlend mode="normal" in2="BackgroundImageFix" result="effect1_dropShadow_0_26"/>
<feBlend mode="normal" in="SourceGraphic" in2="effect1_dropShadow_0_26" result="shape"/>
</filter>
<linearGradient id="paint0_linear_0_26" x1="25.3" y1="6.11991e-07" x2="16" y2="24" gradientUnits="userSpaceOnUse">
<stop stop-color="#CAF1FF"/>
<stop offset="1" stop-color="#CDF4FF"/>
</linearGradient>
</defs>
</svg>
