<svg width="25" height="16" viewBox="0 0 25 16" fill="none" xmlns="http://www.w3.org/2000/svg">
<path d="M8.7 12H15.3C20.8 12 23 11 23 8.5V5.5C23 3 20.8 2 15.3 2H8.7C3.2 2 1 3 1 5.5V8.5C1 11 3.2 12 8.7 12Z" stroke="white" stroke-width="1.5" stroke-linecap="round" stroke-linejoin="round"/>
<path d="M16.4928 8.88397C15.3481 9.62159 13.7069 9.85005 12.2582 9.55631L9.63435 11.2404C9.45199 11.3644 9.07716 11.4428 8.80363 11.4167L7.58794 11.3122C7.18271 11.2796 6.81801 11.0315 6.75722 10.777L6.59513 9.99366C6.55461 9.82394 6.68631 9.58242 6.86866 9.4584L9.48239 7.77429C9.03663 6.84085 9.38108 5.7834 10.5258 5.04578C12.167 3.98832 14.8415 3.98832 16.4928 5.04578C18.134 6.09672 18.134 7.81998 16.4928 8.88397Z" stroke="white" stroke-width="1.5" stroke-miterlimit="10" stroke-linecap="round" stroke-linejoin="round"/>
<path d="M10.5866 10.6269L9.72546 10.0655" stroke="white" stroke-width="1.5" stroke-miterlimit="10" stroke-linecap="round" stroke-linejoin="round"/>
<path d="M13.5696 6.9845H13.5787" stroke="white" stroke-width="2" stroke-linecap="round" stroke-linejoin="round"/>
</svg>
