<svg width="11" height="14" viewBox="0 0 11 14" fill="none" xmlns="http://www.w3.org/2000/svg">
<g clip-path="url(#clip0_0_201)">
<path d="M3.66663 13.02C3.53829 13.02 3.40537 12.9791 3.2862 12.8975C3.02495 12.7225 2.86454 12.3725 2.86454 11.9991V11.1708C1.48038 10.99 0.572876 9.69495 0.572876 7.83995V4.33998C0.572876 2.33331 1.63163 0.985809 3.20829 0.985809H7.79163C9.36829 0.985809 10.427 2.33331 10.427 4.33998V7.83995C10.427 9.84662 9.36829 11.1941 7.79163 11.1941H6.06371L4.1112 12.8508C3.97828 12.9617 3.82246 13.02 3.66663 13.02ZM3.20829 1.85497C2.02579 1.85497 1.26038 2.82914 1.26038 4.33414V7.83418C1.26038 9.33918 2.02579 10.3133 3.20829 10.3133C3.39621 10.3133 3.55204 10.5117 3.55204 10.7508V11.9933C3.55204 12.0692 3.58871 12.1042 3.61163 12.1217C3.63455 12.1392 3.68038 12.1567 3.7308 12.1158L5.77038 10.3892C5.82538 10.3425 5.89413 10.3133 5.96288 10.3133H7.79621C8.97871 10.3133 9.74413 9.33918 9.74413 7.83418V4.33414C9.74413 2.82914 8.97871 1.85497 7.79621 1.85497H3.20829Z" fill="#2E4093"/>
<path d="M5.49995 7.06411C5.31203 7.06411 5.1562 6.86578 5.1562 6.62661V6.50411C5.1562 5.82744 5.54578 5.49494 5.69245 5.3666C5.86203 5.22077 5.91703 5.12161 5.91703 4.96994C5.91703 4.67828 5.72912 4.43909 5.49995 4.43909C5.27078 4.43909 5.08287 4.67828 5.08287 4.96994C5.08287 5.20911 4.92703 5.40744 4.73912 5.40744C4.55122 5.40744 4.39539 5.20911 4.39539 4.96994C4.39539 4.19411 4.89037 3.56409 5.49995 3.56409C6.10953 3.56409 6.60453 4.19411 6.60453 4.96994C6.60453 5.63494 6.21953 5.96744 6.07745 6.08994C5.8987 6.24161 5.8437 6.34078 5.8437 6.50411V6.62661C5.8437 6.87161 5.68787 7.06411 5.49995 7.06411Z" fill="#2E4093"/>
<path d="M5.5 8.51672C5.3075 8.51672 5.15625 8.31839 5.15625 8.07922C5.15625 7.84006 5.31208 7.64172 5.5 7.64172C5.68792 7.64172 5.84375 7.84006 5.84375 8.07922C5.84375 8.31839 5.6925 8.51672 5.5 8.51672Z" fill="#2E4093"/>
</g>
<defs>
<clipPath id="clip0_0_201">
<rect width="11" height="14" fill="white"/>
</clipPath>
</defs>
</svg>
