<svg width="17" height="20" viewBox="0 0 17 20" fill="none" xmlns="http://www.w3.org/2000/svg">
<path d="M8.35396 18.8672C7.88754 18.8672 7.41416 18.7435 7.0452 18.4878L3.2164 15.8728C1.65703 14.6272 1.55957 14.4375 1.55957 12.4825V7.71451C1.55957 5.75948 1.65007 5.56975 3.1816 4.34064L7.03824 1.70094C7.7692 1.19775 8.91784 1.19775 9.6488 1.70094L13.4915 4.32415C15.0509 5.56975 15.1484 5.75948 15.1484 7.71451V12.4742C15.1484 14.4292 15.0579 14.619 13.5263 15.8481L9.66968 18.4878C9.29376 18.7435 8.82038 18.8672 8.35396 18.8672ZM8.35396 2.56709C8.06158 2.56709 7.77616 2.63309 7.57428 2.77332L3.74548 5.39652C2.61075 6.30392 2.61075 6.30392 2.61075 7.71451V12.4742C2.61075 13.8848 2.61076 13.8848 3.77332 14.817L7.57428 17.4154C7.985 17.6959 8.72988 17.6959 9.14061 17.4154L12.9694 14.7922C14.0972 13.8848 14.0972 13.8848 14.0972 12.4742V7.71451C14.0972 6.30392 14.0972 6.30392 12.9346 5.37178L9.13365 2.77332C8.93177 2.63309 8.64634 2.56709 8.35396 2.56709Z" fill="#FFD966"/>
<path d="M8.35384 13.192C6.91282 13.192 5.74329 11.8062 5.74329 10.0986C5.74329 8.39109 6.91282 7.00525 8.35384 7.00525C9.79487 7.00525 10.9644 8.39109 10.9644 10.0986C10.9644 11.8062 9.79487 13.192 8.35384 13.192ZM8.35384 8.24261C7.49062 8.24261 6.78751 9.07576 6.78751 10.0986C6.78751 11.1215 7.49062 11.9547 8.35384 11.9547C9.21707 11.9547 9.92018 11.1215 9.92018 10.0986C9.92018 9.07576 9.21707 8.24261 8.35384 8.24261Z" fill="black"/>
</svg>
