<svg width="19" height="22" viewBox="0 0 19 22" fill="none" xmlns="http://www.w3.org/2000/svg">
<g clip-path="url(#clip0_0_174)" filter="url(#filter0_d_0_174)">
<path d="M10.8753 13.2707H8.12529C7.52029 13.2707 7.01612 13.1949 6.58987 13.0315C6.43404 12.9732 6.33321 12.7807 6.34237 12.5765C6.45696 10.8324 7.84571 9.46149 9.50028 9.46149C11.1549 9.46149 12.539 10.8265 12.6582 12.5765C12.6719 12.7865 12.5711 12.9732 12.4107 13.0315C11.9844 13.1949 11.4803 13.2707 10.8753 13.2707ZM7.08029 12.2849C7.38279 12.3607 7.72654 12.3957 8.12529 12.3957H10.8753C11.274 12.3957 11.6178 12.3607 11.9203 12.2849C11.6774 11.1649 10.6736 10.3365 9.50028 10.3365C8.32696 10.3365 7.32321 11.1649 7.08029 12.2849Z" fill="#2E4093"/>
<path d="M10.875 1.16669H8.12496C5.83329 1.16669 4.91663 2.33335 4.91663 5.25002V8.75002C4.91663 10.955 5.43913 12.1625 6.68579 12.6117C6.78663 11.095 8.01038 9.89919 9.49996 9.89919C10.9895 9.89919 12.2133 11.095 12.3141 12.6117C13.5608 12.1625 14.0833 10.955 14.0833 8.75002V5.25002C14.0833 2.33335 13.1666 1.16669 10.875 1.16669ZM9.49996 8.26585C8.59246 8.26585 7.85913 7.32669 7.85913 6.17169C7.85913 5.0167 8.59246 4.08335 9.49996 4.08335C10.4075 4.08335 11.1408 5.0167 11.1408 6.17169C11.1408 7.32669 10.4075 8.26585 9.49996 8.26585Z" stroke="#2E4093" stroke-width="1.5" stroke-linecap="round" stroke-linejoin="round"/>
<path d="M9.49996 8.70331C8.40455 8.70331 7.51538 7.56581 7.51538 6.17165C7.51538 4.77749 8.40455 3.64581 9.49996 3.64581C10.5954 3.64581 11.4845 4.77749 11.4845 6.17165C11.4845 7.56581 10.5954 8.70331 9.49996 8.70331ZM9.49996 4.52081C8.78496 4.52081 8.20288 5.26166 8.20288 6.17165C8.20288 7.08748 8.78496 7.82831 9.49996 7.82831C10.215 7.82831 10.797 7.08748 10.797 6.17165C10.797 5.26166 10.215 4.52081 9.49996 4.52081Z" fill="#2E4093"/>
</g>
<defs>
<filter id="filter0_d_0_174" x="0" y="0" width="19" height="22" filterUnits="userSpaceOnUse" color-interpolation-filters="sRGB">
<feFlood flood-opacity="0" result="BackgroundImageFix"/>
<feColorMatrix in="SourceAlpha" type="matrix" values="0 0 0 0 0 0 0 0 0 0 0 0 0 0 0 0 0 0 127 0" result="hardAlpha"/>
<feOffset dy="4"/>
<feGaussianBlur stdDeviation="2"/>
<feComposite in2="hardAlpha" operator="out"/>
<feColorMatrix type="matrix" values="0 0 0 0 0 0 0 0 0 0 0 0 0 0 0 0 0 0 0.25 0"/>
<feBlend mode="normal" in2="BackgroundImageFix" result="effect1_dropShadow_0_174"/>
<feBlend mode="normal" in="SourceGraphic" in2="effect1_dropShadow_0_174" result="shape"/>
</filter>
<clipPath id="clip0_0_174">
<rect width="11" height="14" fill="white" transform="translate(4)"/>
</clipPath>
</defs>
</svg>
