<svg width="11" height="14" viewBox="0 0 11 14" fill="none" xmlns="http://www.w3.org/2000/svg">
<path d="M4.92786 9.83524V11.0194C4.92786 12.0227 4.19452 12.8336 3.2916 12.8336C2.38868 12.8336 1.65076 12.0227 1.65076 11.0194V9.83524C1.65076 10.8386 2.3841 11.5502 3.2916 11.5502C4.19452 11.5502 4.92786 10.8327 4.92786 9.83524Z" stroke="#2E4093" stroke-width="1.5" stroke-linecap="round" stroke-linejoin="round"/>
<path d="M4.92718 8.23082C4.92718 8.52249 4.86301 8.79082 4.75301 9.02415C4.48258 9.58999 3.92798 9.94582 3.28632 9.94582C2.64465 9.94582 2.09006 9.58415 1.81965 9.02415C1.70965 8.79082 1.64551 8.52249 1.64551 8.23082C1.64551 7.72915 1.82883 7.27999 2.12217 6.95332C2.42008 6.62082 2.82798 6.42249 3.28173 6.42249C3.73548 6.42249 4.14341 6.62665 4.44133 6.95332C4.74385 7.27415 4.92718 7.72915 4.92718 8.23082Z" stroke="#2E4093" stroke-width="1.5" stroke-linecap="round" stroke-linejoin="round"/>
<path d="M4.92786 8.23085V9.83502C4.92786 10.8384 4.19452 11.55 3.2916 11.55C2.38868 11.55 1.65076 10.8325 1.65076 9.83502V8.23085C1.65076 7.22752 2.3841 6.41669 3.2916 6.41669C3.74535 6.41669 4.15328 6.62085 4.4512 6.94752C4.74453 7.27419 4.92786 7.72919 4.92786 8.23085Z" stroke="#2E4093" stroke-width="1.5" stroke-linecap="round" stroke-linejoin="round"/>
<path d="M10.0834 6.39911V7.60083C10.0834 7.92167 9.88173 8.18411 9.62506 8.19578H8.72668C8.23168 8.19578 7.77798 7.73494 7.73673 7.10494C7.70923 6.73744 7.81918 6.39328 8.01168 6.15411C8.18127 5.93244 8.41506 5.80414 8.67173 5.80414H9.62506C9.88173 5.8158 10.0834 6.07828 10.0834 6.39911Z" stroke="#2E4093" stroke-width="1.5" stroke-linecap="round" stroke-linejoin="round"/>
<path d="M0.916626 6.12502V4.95835C0.916626 3.37169 1.66829 2.26335 2.83704 2.07669C2.95621 2.05335 3.07996 2.04169 3.20829 2.04169H7.33329C7.45246 2.04169 7.56704 2.04751 7.67704 2.07085C8.85954 2.24585 9.62496 3.36002 9.62496 4.95835V5.80419H8.67163C8.41496 5.80419 8.18121 5.93252 8.01163 6.15419C7.81913 6.39335 7.70913 6.73752 7.73663 7.10502C7.77788 7.73502 8.23163 8.19585 8.72663 8.19585H9.62496V9.04169C9.62496 10.7917 8.70829 11.9584 7.33329 11.9584H6.18746" stroke="#2E4093" stroke-width="1.5" stroke-linecap="round" stroke-linejoin="round"/>
</svg>
